<svg width="67" height="67" viewBox="0 0 67 67" fill="none" xmlns="http://www.w3.org/2000/svg">
<path d="M28.1311 45.1219C27.239 46.0141 26.226 46.7855 25.0922 47.436C23.9398 48.068 22.7131 48.4955 21.412 48.7185C20.1109 48.9044 18.7727 48.8114 17.3973 48.4397C16.0032 48.0494 14.6278 47.2873 13.271 46.1535L16.8397 42.5848C17.9549 43.3655 19.005 43.7837 19.9901 43.8395C20.9752 43.858 21.886 43.6536 22.7224 43.2261C23.5588 42.7986 24.2744 42.2875 24.8692 41.6927C25.5569 41.005 26.0494 40.2894 26.3468 39.5459C26.6628 38.7838 26.7743 38.059 26.6814 37.3712C26.607 36.6649 26.3282 36.0702 25.845 35.5869C25.3059 35.0479 24.674 34.7133 23.9491 34.5832C23.2242 34.4531 22.2577 34.8063 21.0496 35.6427L17.3136 38.2077C15.3434 39.5459 13.4104 40.1779 11.5145 40.1035C9.60009 40.0106 7.96445 39.2857 6.60761 37.9289C5.38088 36.7021 4.6467 35.3546 4.40508 33.8862C4.14486 32.3993 4.30285 30.903 4.87904 29.3975C5.45523 27.892 6.37528 26.5073 7.63918 25.2434C8.95884 23.9237 10.3621 22.9665 11.8491 22.3717C13.3546 21.7583 14.9066 21.6003 16.5051 21.8977C18.1036 22.1579 19.7113 22.9665 21.3284 24.3233L17.7039 27.9477C16.7374 27.2414 15.8546 26.8604 15.0553 26.8046C14.2375 26.7303 13.494 26.8604 12.8249 27.195C12.1558 27.5295 11.5703 27.9477 11.0684 28.4496C10.6038 28.9142 10.1763 29.4904 9.78596 30.1782C9.41422 30.8473 9.21906 31.5443 9.20047 32.2692C9.20047 32.9755 9.51645 33.6446 10.1484 34.2765C10.6688 34.797 11.3194 35.0758 12.1 35.113C12.8992 35.1315 13.8472 34.7598 14.9438 33.9977L18.3731 31.6279C20.3247 30.2711 22.2205 29.5462 24.0606 29.4533C25.8821 29.3417 27.6479 30.141 29.3579 31.851C30.3244 32.8175 30.9656 33.8862 31.2816 35.0572C31.6162 36.2096 31.6905 37.3991 31.5046 38.6259C31.3188 39.8154 30.9377 40.9771 30.3616 42.1109C29.7668 43.2261 29.0233 44.2298 28.1311 45.1219ZM45.5123 27.7408C44.0811 29.172 42.5384 30.25 40.8842 30.9749C39.2485 31.6812 37.5943 31.9228 35.9215 31.6998C34.2673 31.4582 32.6874 30.6218 31.1818 29.1906L35.0014 25.371C35.5962 25.9658 36.2932 26.3468 37.0924 26.5141C37.9103 26.6628 38.7653 26.5698 39.6574 26.2353C40.5496 25.9007 41.4139 25.3152 42.2503 24.4788C43.4398 23.2893 44.0811 22.109 44.174 20.938C44.2855 19.7485 43.9417 18.7541 43.1425 17.9549C42.5105 17.3229 41.7949 16.9791 40.9957 16.9233C40.1964 16.8675 39.3507 17.0627 38.4586 17.5088C37.5664 17.9549 36.6742 18.624 35.7821 19.5162L34.165 21.1332L30.9588 17.927L32.5759 16.3099C33.6725 15.2133 34.4067 14.0888 34.7784 12.9364C35.1501 11.7469 34.9178 10.7339 34.0814 9.89748C33.3751 9.19118 32.5294 8.94026 31.5443 9.14471C30.5406 9.33058 29.5462 9.91606 28.5611 10.9012C27.4831 11.9792 26.8976 13.0851 26.8046 14.2189C26.7303 15.3341 27.0277 16.282 27.6968 17.0627L23.8772 20.8823C22.6877 19.5812 21.9628 18.1872 21.7026 16.7002C21.4424 15.1761 21.6189 13.6427 22.2323 12.1C22.8457 10.5201 23.8586 9.0239 25.2712 7.6113C26.7954 6.08718 28.3195 5.04632 29.8436 4.48871C31.3677 3.89394 32.7989 3.72666 34.1371 3.98687C35.4754 4.24709 36.6185 4.85116 37.5664 5.79908C38.7002 6.93288 39.2857 8.22466 39.3229 9.67443C39.3786 11.1056 39.0719 12.416 38.4028 13.6055C39.8154 12.6019 41.3117 12.1465 42.8915 12.2394C44.4714 12.3323 45.8933 13.0108 47.1572 14.2747C48.2352 15.3527 48.923 16.6352 49.2203 18.1221C49.5363 19.5905 49.4062 21.1518 48.83 22.806C48.2538 24.4602 47.1479 26.1052 45.5123 27.7408ZM37.751 63.1172L30.3264 55.6926L35.1948 50.8242L36.3934 52.0227L33.0099 55.4062L34.9297 57.326L37.6344 54.6213L38.8011 55.788L36.0964 58.4927L39.236 61.6323L37.751 63.1172ZM46.033 55.0897C45.6936 55.4292 45.3083 55.7226 44.8769 55.9701C44.4385 56.2105 43.9718 56.3731 43.4769 56.458C42.9819 56.5287 42.4728 56.4934 41.9495 56.3519C41.4192 56.2034 40.8959 55.9135 40.3797 55.4822L41.7374 54.1245C42.1616 54.4215 42.5612 54.5806 42.9359 54.6018C43.3107 54.6089 43.6572 54.5311 43.9754 54.3685C44.2936 54.2059 44.5658 54.0114 44.7921 53.7851C45.0537 53.5235 45.2411 53.2513 45.3542 52.9684C45.4744 52.6785 45.5169 52.4027 45.4815 52.1411C45.4532 51.8724 45.3472 51.6461 45.1633 51.4623C44.9582 51.2572 44.7178 51.1299 44.4421 51.0805C44.1663 51.031 43.7986 51.1653 43.339 51.4835L41.9177 52.4593C41.1682 52.9684 40.4328 53.2088 39.7115 53.1806C38.9832 53.1452 38.3609 52.8694 37.8447 52.3532C37.3781 51.8866 37.0988 51.3739 37.0068 50.8153C36.9078 50.2496 36.9679 49.6804 37.1871 49.1076C37.4063 48.5349 37.7564 48.0081 38.2372 47.5272C38.7392 47.0252 39.2731 46.661 39.8388 46.4348C40.4115 46.2014 41.002 46.1413 41.6101 46.2544C42.2182 46.3534 42.8299 46.661 43.445 47.1772L42.0662 48.5561C41.6985 48.2874 41.3626 48.1424 41.0585 48.1212C40.7474 48.0929 40.4646 48.1424 40.21 48.2697C39.9555 48.397 39.7327 48.5561 39.5418 48.747C39.365 48.9238 39.2024 49.143 39.0539 49.4046C38.9125 49.6592 38.8382 49.9243 38.8312 50.2001C38.8312 50.4688 38.9514 50.7234 39.1918 50.9638C39.3898 51.1618 39.6373 51.2678 39.9342 51.282C40.2383 51.289 40.5989 51.1476 41.0161 50.8577L42.3207 49.9562C43.0632 49.44 43.7844 49.1642 44.4845 49.1288C45.1774 49.0864 45.8492 49.3905 46.4997 50.041C46.8674 50.4087 47.1114 50.8153 47.2316 51.2608C47.3589 51.6992 47.3872 52.1517 47.3164 52.6184C47.2457 53.071 47.1008 53.5129 46.8816 53.9442C46.6553 54.3685 46.3725 54.7503 46.033 55.0897ZM49.5695 51.2987L42.1449 43.8741L43.6298 42.3892L46.5254 45.2848L46.2815 39.7375L48.1058 37.9132L48.3179 43.5771L55.6153 45.253L53.8016 47.0667L48.4028 45.7833L48.4558 47.2152L51.0544 49.8138L49.5695 51.2987ZM56.2504 44.6178L48.8258 37.1932L50.3107 35.7083L57.7354 43.1329L56.2504 44.6178ZM60.6137 40.2545L54.3877 34.0284L52.2239 36.1922L51.0254 34.9936L56.8272 29.1918L58.0257 30.3904L55.8726 32.5435L62.0987 38.7696L60.6137 40.2545Z" fill="white"/>
</svg>
